<mxfile host="65bd71144e">
    <diagram name="Page-1" id="-H_mtQnk-PTXWXPvYvuk">
        <mxGraphModel dx="1106" dy="606" grid="1" gridSize="10" guides="1" tooltips="1" connect="1" arrows="1" fold="1" page="1" pageScale="1" pageWidth="1169" pageHeight="827" math="0" shadow="0">
            <root>
                <mxCell id="0"/>
                <mxCell id="1" parent="0"/>
                <mxCell id="AoJvDsgy-jhIE7RrRT2Y-1" style="edgeStyle=orthogonalEdgeStyle;rounded=0;orthogonalLoop=1;jettySize=auto;html=1;entryX=0;entryY=0.5;entryDx=0;entryDy=0;" parent="1" target="AoJvDsgy-jhIE7RrRT2Y-3" edge="1">
                    <mxGeometry relative="1" as="geometry">
                        <mxPoint x="480" y="315" as="sourcePoint"/>
                    </mxGeometry>
                </mxCell>
                <mxCell id="AoJvDsgy-jhIE7RrRT2Y-3" value="" style="rounded=1;whiteSpace=wrap;html=1;container=0;" parent="1" vertex="1">
                    <mxGeometry x="540" y="210" width="250" height="210" as="geometry"/>
                </mxCell>
                <mxCell id="AoJvDsgy-jhIE7RrRT2Y-6" value="Кластер MongoDB" style="rounded=1;whiteSpace=wrap;html=1;fillColor=#C3ABD0;" parent="1" vertex="1">
                    <mxGeometry x="610" y="210" width="120" height="20" as="geometry"/>
                </mxCell>
                <mxCell id="AoJvDsgy-jhIE7RrRT2Y-7" value="MongoDB&lt;div&gt;Shard2 Replica&lt;/div&gt;" style="shape=cylinder3;whiteSpace=wrap;html=1;boundedLbl=1;backgroundOutline=1;size=15;container=0;" parent="1" vertex="1">
                    <mxGeometry x="640" y="330" width="60" height="80" as="geometry"/>
                </mxCell>
                <mxCell id="AoJvDsgy-jhIE7RrRT2Y-8" value="MongoDB&lt;div&gt;Shard1&lt;/div&gt;&lt;div&gt;&lt;span style=&quot;background-color: transparent; color: light-dark(rgb(0, 0, 0), rgb(255, 255, 255));&quot;&gt;Replica&lt;/span&gt;&lt;/div&gt;" style="shape=cylinder3;whiteSpace=wrap;html=1;boundedLbl=1;backgroundOutline=1;size=15;container=0;" parent="1" vertex="1">
                    <mxGeometry x="640" y="240" width="60" height="80" as="geometry"/>
                </mxCell>
                <mxCell id="AoJvDsgy-jhIE7RrRT2Y-9" value="pymongo-api" style="rounded=1;whiteSpace=wrap;html=1;" parent="1" vertex="1">
                    <mxGeometry x="360" y="285" width="120" height="60" as="geometry"/>
                </mxCell>
                <mxCell id="AoJvDsgy-jhIE7RrRT2Y-10" value="Python/FastAPI" style="rounded=1;whiteSpace=wrap;html=1;fillColor=#C3ABD0;" parent="1" vertex="1">
                    <mxGeometry x="375" y="285" width="90" height="20" as="geometry"/>
                </mxCell>
                <mxCell id="2" value="MongoDB&lt;div&gt;Shard2 Replica&lt;/div&gt;" style="shape=cylinder3;whiteSpace=wrap;html=1;boundedLbl=1;backgroundOutline=1;size=15;container=0;" vertex="1" parent="1">
                    <mxGeometry x="720" y="330" width="60" height="80" as="geometry"/>
                </mxCell>
                <mxCell id="3" value="MongoDB&lt;div&gt;Shard1&lt;/div&gt;&lt;div&gt;&lt;span style=&quot;background-color: transparent; color: light-dark(rgb(0, 0, 0), rgb(255, 255, 255));&quot;&gt;Replica&lt;/span&gt;&lt;/div&gt;" style="shape=cylinder3;whiteSpace=wrap;html=1;boundedLbl=1;backgroundOutline=1;size=15;container=0;" vertex="1" parent="1">
                    <mxGeometry x="720" y="240" width="60" height="80" as="geometry"/>
                </mxCell>
                <mxCell id="4" value="MongoDB&lt;div&gt;Shard1&lt;/div&gt;&lt;div&gt;&lt;span style=&quot;background-color: transparent; color: light-dark(rgb(0, 0, 0), rgb(255, 255, 255));&quot;&gt;Replica&lt;/span&gt;&lt;/div&gt;" style="shape=cylinder3;whiteSpace=wrap;html=1;boundedLbl=1;backgroundOutline=1;size=15;container=0;" vertex="1" parent="1">
                    <mxGeometry x="560" y="240" width="60" height="80" as="geometry"/>
                </mxCell>
                <mxCell id="5" value="MongoDB&lt;div&gt;Shard2 Replica&lt;/div&gt;" style="shape=cylinder3;whiteSpace=wrap;html=1;boundedLbl=1;backgroundOutline=1;size=15;container=0;" vertex="1" parent="1">
                    <mxGeometry x="560" y="330" width="60" height="80" as="geometry"/>
                </mxCell>
            </root>
        </mxGraphModel>
    </diagram>
</mxfile>